<?xml version="1.0" encoding="iso-8859-1"?>
<!-- Uploaded to: SVG Repo, www.svgrepo.com, Generator: SVG Repo Mixer Tools -->
<svg height="800px" width="800px" version="1.1" id="Layer_1" xmlns="http://www.w3.org/2000/svg" xmlns:xlink="http://www.w3.org/1999/xlink" 
	 viewBox="0 0 512 512" xml:space="preserve">
<ellipse style="fill:#6E76E5;" cx="256" cy="197.235" rx="111.909" ry="111.971"/>
<path style="fill:#FFE666;" d="M410.771,155.541h-37.715c-8.875-6.841-19.987-10.919-32.055-10.919
	c-12.07,0-23.181,4.078-32.055,10.919h-11.277v-2.089c6.838-8.88,10.913-19.997,10.913-32.072s-4.076-23.194-10.913-32.073V49.465
	c0-22.992-18.628-41.63-41.608-41.63h-0.123c-22.979,0-41.608,18.638-41.608,41.63v39.842c-6.838,8.88-10.913,19.997-10.913,32.073
	s4.076,23.194,10.913,32.072v2.089h-11.277c-8.874-6.841-19.987-10.919-32.055-10.919s-23.181,4.078-32.055,10.919h-37.715
	c-23.013,0-41.669,18.666-41.669,41.691s18.656,41.691,41.669,41.691h37.715c8.874,6.841,19.987,10.919,32.055,10.919
	c12.069,0,23.181-4.078,32.055-10.919h11.024c-6.686,8.825-10.66,19.822-10.66,31.75c0,12.076,4.076,23.194,10.913,32.072v159.787
	c0,22.992,18.628,41.63,41.608,41.63h0.123c22.979,0,41.608-18.638,41.608-41.63V302.747c6.838-8.88,10.913-19.997,10.913-32.072
	c0-11.929-3.974-22.925-10.66-31.75h11.024c8.875,6.841,19.987,10.919,32.055,10.919c12.07,0,23.181-4.078,32.055-10.919h37.715
	c23.013,0,41.669-18.666,41.669-41.691S433.785,155.541,410.771,155.541z"/>
<path style="fill:#EDD147;" d="M256.439,7.837v496.327h-0.502c-22.977,0-41.608-18.641-41.608-41.629V302.749
	c-6.834-8.882-10.909-19.999-10.909-32.078c0-11.922,3.971-22.925,10.658-31.744h-11.024c-8.871,6.844-19.989,10.919-32.057,10.919
	c-12.069,0-23.176-4.075-32.057-10.919h-37.71c-23.019,0-41.671-18.672-41.671-41.691c0-23.03,18.651-41.691,41.671-41.691h37.71
	c8.882-6.844,19.989-10.919,32.057-10.919c12.069,0,23.186,4.075,32.057,10.919h11.274v-2.09
	c-6.834-8.882-10.909-19.999-10.909-32.068c0-12.079,4.075-23.197,10.909-32.078V49.465c0-22.988,18.631-41.629,41.608-41.629
	H256.439z"/>
<g>
	<path style="fill:#FF9C33;" d="M426.402,197.235c0,3.95-1.599,7.513-4.18,10.104c-2.591,2.581-6.154,4.18-10.094,4.18h-311.38
		c-7.889,0-14.284-6.395-14.284-14.284s6.395-14.284,14.284-14.284h311.38C420.007,182.951,426.402,189.346,426.402,197.235z"/>
	<path style="fill:#FF9C33;" d="M270.273,49.1v413.8c0,7.879-6.395,14.273-14.273,14.273h-0.115
		c-7.826-0.063-14.158-6.437-14.158-14.273V49.1c0-7.837,6.332-14.211,14.158-14.273H256c3.939,0,7.502,1.599,10.094,4.18
		C268.675,41.587,270.273,45.16,270.273,49.1z"/>
</g>
<g>
	<path style="fill:#C9571E;" d="M426.402,197.235c0,3.95-1.599,7.513-4.18,10.104c-2.591,2.581-6.154,4.18-10.094,4.18h-311.38
		c-7.889,0-14.284-6.395-14.284-14.284H426.402z"/>
	<path style="fill:#C9571E;" d="M256,34.826v442.347h-0.115c-7.826-0.063-14.158-6.437-14.158-14.273V49.1
		c0-7.837,6.332-14.211,14.158-14.273H256z"/>
</g>
<ellipse style="fill:#FF9C33;" cx="256" cy="197.235" rx="29.21" ry="29.226"/>
<path style="fill:#C9571E;" d="M274.024,214.803c-16.132,0-29.21-13.085-29.21-29.226c0-6.344,2.027-12.211,5.459-17.002
	c-13.389,2.663-23.483,14.481-23.483,28.661c0,16.142,13.078,29.226,29.21,29.226c9.792,0,18.452-4.826,23.752-12.224
	C277.9,214.605,275.986,214.803,274.024,214.803z"/>
<path d="M51.722,197.233c0,27.309,22.208,49.528,49.506,49.528h35.144c4.464,3.136,9.26,5.619,14.295,7.422
	c12.423,22.993,32.053,41.328,55.826,52.144v156.207c0,27.276,22.181,49.467,49.445,49.467h0.122
	c27.264,0,49.445-22.19,49.445-49.467v-72.438c0-4.328-3.508-7.837-7.837-7.837s-7.837,3.509-7.837,7.837v72.438
	c0,18.634-15.15,33.793-33.771,33.793h-0.122c-18.621,0-33.771-15.159-33.771-33.793V302.748c0-1.729-0.573-3.411-1.628-4.781
	c-6.074-7.889-9.286-17.327-9.286-27.292c0-9.844,3.136-19.186,9.07-27.017c1.797-2.372,2.096-5.556,0.772-8.22
	c-1.325-2.664-4.043-4.35-7.019-4.35h-11.024c-1.73,0-3.414,0.573-4.785,1.63c-7.884,6.077-17.314,9.289-27.272,9.289
	c-4.268,0-8.44-0.595-12.434-1.748c-0.113-0.038-0.229-0.066-0.343-0.098c-5.195-1.546-10.086-4.046-14.494-7.443
	c-1.372-1.057-3.054-1.63-4.785-1.63h-37.712c-18.656,0-33.833-15.188-33.833-33.855c0-17.509,13.11-31.995,30.496-33.693
	c4.307-0.421,7.458-4.254,7.037-8.561c-0.421-4.309-4.256-7.467-8.562-7.037C70.915,150.428,51.722,171.618,51.722,197.233z
	 M198.887,250.871c-2.184,6.299-3.306,12.962-3.306,19.804c0,4.151,0.422,8.232,1.233,12.208
	c-9.893-6.855-18.54-15.384-25.543-25.209C181.032,257.63,190.414,255.307,198.887,250.871z"/>
<path d="M297.669,363.799c4.329,0,7.837-3.509,7.837-7.837v-49.636c23.774-10.816,43.403-29.151,55.826-52.144
	c5.035-1.802,9.831-4.286,14.295-7.422h35.144c27.298,0,49.506-22.219,49.506-49.528s-22.208-49.528-49.506-49.528h-35.144
	c-4.463-3.136-9.26-5.619-14.294-7.422c-12.155-22.487-31.319-40.612-54.45-51.49c-0.445-0.692-0.903-1.377-1.377-2.053V49.467
	C305.506,22.19,283.325,0,256.062,0h-0.122c-27.265,0-49.445,22.19-49.445,49.467v37.273c-0.474,0.676-0.932,1.362-1.377,2.053
	c-23.131,10.877-42.294,29.003-54.45,51.49c-5.035,1.802-9.831,4.286-14.294,7.422h-8.896c-4.329,0-7.837,3.509-7.837,7.837
	c0,4.328,3.508,7.837,7.837,7.837h11.466c1.731,0,3.414-0.574,4.785-1.63c4.369-3.369,9.215-5.852,14.361-7.401
	c0.106-0.028,0.207-0.063,0.311-0.095c4.044-1.185,8.271-1.793,12.598-1.793c9.958,0,19.389,3.212,27.272,9.289
	c1.372,1.056,3.053,1.63,4.785,1.63h11.277c4.329,0,7.837-3.509,7.837-7.837v-2.089c0-1.729-0.573-3.411-1.628-4.781
	c-6.074-7.89-9.286-17.327-9.286-27.291c0-7.95,2.05-15.562,5.961-22.322c0.083-0.131,0.155-0.267,0.229-0.403
	c0.931-1.572,1.963-3.096,3.095-4.566c1.055-1.371,1.628-3.051,1.628-4.781V49.467c0-18.634,15.15-33.793,33.771-33.793h0.122
	c18.621,0,33.771,15.159,33.771,33.793v39.841c0,1.729,0.573,3.411,1.628,4.781c1.132,1.47,2.164,2.995,3.095,4.566
	c0.074,0.136,0.146,0.272,0.229,0.403c3.911,6.76,5.961,14.372,5.961,22.322c0,9.964-3.211,19.401-9.286,27.291
	c-1.055,1.371-1.628,3.051-1.628,4.781v2.089c0,4.328,3.508,7.837,7.837,7.837h11.277c1.731,0,3.414-0.574,4.785-1.63
	c7.883-6.077,17.313-9.289,27.272-9.289c4.327,0,8.554,0.608,12.598,1.793c0.103,0.032,0.206,0.067,0.311,0.095
	c5.146,1.549,9.992,4.033,14.361,7.401c1.372,1.056,3.053,1.63,4.785,1.63h37.715c18.656,0,33.833,15.188,33.833,33.855
	s-15.177,33.855-33.833,33.855h-37.715c-1.73,0-3.414,0.573-4.785,1.63c-4.406,3.396-9.295,5.896-14.49,7.442
	c-0.116,0.032-0.234,0.062-0.348,0.099c-3.995,1.154-8.164,1.748-12.432,1.748c-9.957,0-19.388-3.212-27.272-9.289
	c-1.372-1.057-3.054-1.63-4.785-1.63h-11.024c-2.976,0-5.694,1.684-7.019,4.35c-1.324,2.664-1.024,5.848,0.772,8.22
	c5.933,7.832,9.07,17.174,9.07,27.017c0,9.155-2.718,17.861-7.869,25.336c-0.004,0.006-0.008,0.013-0.013,0.019
	c-0.451,0.654-0.914,1.303-1.403,1.937c-1.055,1.371-1.628,3.051-1.628,4.781v53.216C289.833,360.29,293.34,363.799,297.669,363.799
	z M171.282,136.79c6.876-9.635,15.352-18.038,25.024-24.831c-0.481,3.089-0.726,6.235-0.726,9.422
	c0,7.953,1.515,15.657,4.448,22.828C191.263,139.376,181.48,136.837,171.282,136.79z M311.971,144.21
	c2.933-7.171,4.448-14.875,4.448-22.828c0-3.187-0.246-6.333-0.726-9.422c9.674,6.793,18.148,15.196,25.024,24.831
	C330.52,136.837,320.737,139.376,311.971,144.21z M340.729,257.673c-7.003,9.825-15.65,18.354-25.543,25.208
	c0.812-3.975,1.233-8.056,1.233-12.207c0-6.842-1.122-13.505-3.306-19.804C321.586,255.307,330.968,257.63,340.729,257.673z"/>
<path d="M256,485.01c12.192,0,22.11-9.918,22.11-22.11V226.967c2.903-2.16,5.467-4.724,7.611-7.612h126.408
	c5.889,0,11.437-2.296,15.647-6.487c4.167-4.186,6.464-9.737,6.464-15.635c0-12.197-9.918-22.12-22.11-22.12H285.719
	c-2.149-2.892-4.711-5.455-7.609-7.611V49.1c0-5.907-2.3-11.459-6.487-15.647c-4.185-4.168-9.733-6.464-15.623-6.464
	c-12.192,0-22.11,9.918-22.11,22.11v118.403c-2.903,2.16-5.467,4.724-7.611,7.612h-125.53c-12.197,0-22.12,9.923-22.12,22.12
	s9.923,22.12,22.12,22.12h125.532c2.148,2.892,4.711,5.454,7.609,7.611V462.9C233.89,475.092,243.808,485.01,256,485.01z
	 M266.437,178.564c3.453,1.937,6.29,4.775,8.222,8.24c1.778,3.151,2.719,6.758,2.719,10.431c0,3.674-0.939,7.281-2.738,10.467
	c-1.913,3.43-4.75,6.267-8.207,8.207c-3.161,1.776-6.77,2.716-10.434,2.716c-3.664,0-7.272-0.938-10.433-2.715
	c-0.001-0.001-0.003-0.002-0.004-0.002c-3.453-1.937-6.29-4.775-8.203-8.206c-0.003-0.005-0.007-0.01-0.01-0.017
	c-0.003-0.006-0.006-0.013-0.009-0.019c-1.778-3.151-2.719-6.758-2.719-10.432c0-3.674,0.939-7.281,2.738-10.467
	c1.913-3.43,4.75-6.267,8.207-8.207c3.161-1.776,6.77-2.716,10.434-2.716C259.663,175.845,263.274,176.784,266.437,178.564z
	 M256,469.337c-3.548,0-6.437-2.888-6.437-6.437V233.72c2.119,0.373,4.272,0.578,6.437,0.578c2.165,0,4.319-0.205,6.437-0.578V462.9
	C262.437,466.449,259.548,469.337,256,469.337z M418.565,197.235c0,1.722-0.674,3.347-1.872,4.551
	c-1.228,1.223-2.849,1.896-4.564,1.896H292.473c0.374-2.121,0.579-4.277,0.579-6.447s-0.205-4.327-0.579-6.447h119.655
	C415.677,190.788,418.565,193.679,418.565,197.235z M256,42.663c1.716,0,3.336,0.674,4.552,1.884
	c1.215,1.215,1.885,2.832,1.885,4.553v111.65c-2.119-0.373-4.272-0.578-6.437-0.578c-2.165,0-4.319,0.205-6.437,0.578V49.1
	C249.563,45.551,252.452,42.663,256,42.663z M94.302,197.235c0-3.555,2.892-6.447,6.447-6.447h118.778
	c-0.374,2.121-0.579,4.277-0.579,6.447s0.205,4.327,0.579,6.447H100.749C97.194,203.682,94.302,200.79,94.302,197.235z"/>
</svg>